<svg xmlns="http://www.w3.org/2000/svg" xmlns:xlink="http://www.w3.org/1999/xlink" width="567" height="469" viewBox="0 0 567 469">
  <defs>
    <clipPath id="clip-path">
      <rect id="Rectangle_2" data-name="Rectangle 2" width="567" height="469" transform="translate(1341 611)" fill="#fff"/>
    </clipPath>
  </defs>
  <g id="Sewing_Illustration" data-name="Sewing Illustration" transform="translate(-1341 -611)" clip-path="url(#clip-path)">
    <g id="Sewing_Illustration-2" data-name="Sewing Illustration" transform="translate(1340.739 610.894)">
      <path id="Path_1" data-name="Path 1" d="M382.758,332.352h-9.742V183.966h9.742Z" transform="translate(121.37 59.858)" fill="#664e54"/>
      <path id="Path_2" data-name="Path 2" d="M455.344,186.954c-4.871-20.59-21.361-47.227-19.622-55.071s12.641-31.3,13.291-43.717-.968-51.557-4.215-55.48-19.483-7.844-25.975-13.073S413.3,0,413.3,0h-39.78s.975,14.382-5.519,19.612-22.726,9.151-25.973,13.073-11.689,43.059-11.04,55.48,15.9,35.873,17.639,43.717S333.591,168,330.344,186.3s-7.617,37.911-2.864,48.372c9,19.81,122.748,20.081,131.871,0C464.1,224.212,459.621,205.042,455.344,186.954Z" transform="translate(105.872 0)" fill="#ffeed7"/>
      <path id="Path_3" data-name="Path 3" d="M455.141,165.635c-4.871-20.591-21.358-47.227-19.621-55.072s12.64-31.3,13.291-43.717c.021-.406.03-.849.033-1.325-58.807,19.629-104.78,5-118.078.647.005.234.013.462.024.677.651,12.42,15.9,35.873,17.639,43.717s-15.04,36.116-18.288,54.419c-1.466,8.258-3.157,16.782-4.139,24.615,6.811-18,32.694-68.973,67.276-65.391,33.418,3.462,58.706,44.826,66.13,60.985-1.152-6.353-2.722-13.026-4.268-19.556" transform="translate(106.073 21.319)" fill="#f0ddc1"/>
      <path id="Path_4" data-name="Path 4" d="M400.884,19.612C394.389,14.382,395.365,0,395.365,0H380.518c.59,2.989,4.313,14.254,10.133,22.063,7.305,9.8,36.208,10.621,36.208,10.621-3.247-3.921-19.483-7.844-25.975-13.073" transform="translate(123.811 0)" fill="#f0ddc1"/>
      <path id="Path_5" data-name="Path 5" d="M211.837,130.823c5.263,11.984-3.569,25.483-4.339,37.794-.366,5.885-.2,14.949,6.895,16.431,1.032.215,1.769-1.239.75-1.791-18.372-9.956,8.2-39.027-2.117-53.134A.69.69,0,0,0,211.837,130.823Z" transform="translate(67.479 42.234)" fill="#664e54"/>
      <path id="Path_6" data-name="Path 6" d="M216.59,87.779c7.469-8.961,14.17-16.077,26.681-16.875,12.2-.777,28.456,2.74,30.411,17.383.2,1.489,2.448,1.036,2.509-.341.55-12.744-14.741-19.64-25.41-19.733C236.195,68.088,222.3,73.085,215.97,87.3c-.167.376.307.857.62.483" transform="translate(70.26 22.194)" fill="#664e54"/>
      <path id="Path_7" data-name="Path 7" d="M251.042,66.507c5.584,1.137,9.857,7.052,11.2,12.41,1.283,5.1-2.488,7.405-3.771,11.822a1.188,1.188,0,0,0,1.967,1.151c4.469-3.675,6.306-9.372,4.229-14.779-2.13-5.542-7.075-11.764-13.5-11.585-.537.016-.7.866-.132.982" transform="translate(81.568 21.319)" fill="#664e54"/>
      <path id="Path_8" data-name="Path 8" d="M290.431,112.253c1.966,22.963,44.123,60.054,15.992,80.245-1.3.93-.168,3,1.271,2.187,30.472-17.262-11.339-63.439-16-82.6C291.525,111.388,290.368,111.514,290.431,112.253Z" transform="translate(94.498 36.32)" fill="#664e54"/>
      <path id="Path_9" data-name="Path 9" d="M279.876,79s-36.488-22.382-66.124,12.361c-25.3,29.661,1.663,59.8,5.162,72.36,4.286,15.376-15.617,27.366.475,51.814,8.659,13.156,17.074,28.932,65.478,27.339,35.569-1.168,54.42-21.942,57.124-43.866,1.939-15.732-4.033-24.848-11.508-40.327-7.356-15.233-10.9-45.361-18.951-59.8C304.089,85.542,288.262,77.767,279.876,79" transform="translate(66.062 23.397)" fill="#664e54"/>
      <path id="Path_10" data-name="Path 10" d="M229.587,180.171c-17.185,5.088-34.66,36.136-48.776,67.038s-23.071,57.535-5.36,65.463c24.822,11.113,48.957-43.458,57.043-61.774S229.587,180.171,229.587,180.171Z" transform="translate(53.889 58.623)" fill="#009ddc"/>
      <path id="Path_11" data-name="Path 11" d="M156.723,233.127c-1.712-2.73-3.132-6.834-5.137-6.61-2.57.288-2,6.036-.713,8.046s5.85-1.437,5.85-1.437" transform="translate(48.736 73.7)" fill="#f29193"/>
      <path id="Path_12" data-name="Path 12" d="M192.237,297.284c-29.162.784-53.568-33.027-56.293-46.747C132.721,234.318,150,227.272,163.451,236.2c9.579,6.359,29.488,20.184,37.849,26.514,7.781,5.893,6.686,34.142-9.063,34.566" transform="translate(44.105 75.583)" fill="#009ddc"/>
      <path id="Path_13" data-name="Path 13" d="M230.161,259.175c-1.474-4.918-7.772-25.023-11.67-23.06-4.44,2.235,2.219,46.033-21.311,44.692s-32.853-39.775-32.853-39.775l.472-3.93c-.467-.312-.92-.615-1.348-.9-13.454-8.932-30.73-1.886-27.507,14.333,2.725,13.72,27.13,47.532,56.293,46.747a12.11,12.11,0,0,0,2.584-.347C208.279,294.613,220.917,276.317,230.161,259.175Z" transform="translate(44.105 75.583)" fill="#0072b3"/>
      <path id="Path_14" data-name="Path 14" d="M156.664,248.753c-2.433,6.751-13.952,10.363-18.188,1.932-2.2-4.378-3.184-12.941.382-17.449s12.151-4.163,15.946-1.645,3.757,11.9,1.861,17.161" transform="translate(44.413 74.757)" fill="#f29193"/>
      <path id="Path_15" data-name="Path 15" d="M314.647,299.015c-1.849-24.238,27-97.159,11.574-110.661-8.718-7.633-17.45-10.474-28.566-14.565,0,0-43.132,2.827-56.4.589-6.5,2.111-13.777,4.928-21.683,7.87-9.465,22.5-19.734,54.371-18.523,66.364,1.849,18.337,14.058,34.026,13.582,49.372-.412,13.229-14.167,38.237-18.236,68.073,0,0,32.036,10.232,66.111,8.844,43.752-1.78,71.112-10.321,71.112-10.321-1.527-14.872-17.354-44.364-18.971-65.565" transform="translate(63.902 56.547)" fill="#009ddc"/>
      <path id="Path_16" data-name="Path 16" d="M274.481,277.844c3.108,9.385,2.665,22.346,2.665,22.346l22.8-3.366a84.536,84.536,0,0,1-3.188-16.233c-.591-7.742,1.95-20.449,5.18-34.6-3.58-6.7-11.039-16.408-12.364-15.521s-4.883,10.281-14.649,17.878c-9.594,7.463-22.641,7.6-23.531,10.726s19.977,9.385,23.085,18.77" transform="translate(81.789 74.971)" fill="#0072b3"/>
      <path id="Path_17" data-name="Path 17" d="M30.141,280.812c-4.9,3.1-10.861,23.932-17.447,52.871C6.051,362.868-2.1,394.147.494,399.7s53.293,8.649,116.465,8.032,207.268,2.209,253.459.357c46.165-1.854,180.593-2.473,187.99-9.256s-5.6-46.934-11.174-67.566c-5.541-20.509-14.417-54.62-19.535-56.407s-69.174-.6-105.472-.6-172.7,4.168-230.847,4.763S39.571,274.856,30.141,280.812Z" transform="translate(0 89.111)" fill="#b7a391"/>
      <path id="Path_18" data-name="Path 18" d="M137.385,358.536q7.523.064,16.012.056c45.309,0,109.941-1.16,172.665-2.3,47.711-.867,92.779-1.677,126.258-1.93,30.492-.216,69.411-.762,106.336-1.363q-.253-1.4-.545-2.851c-36.766.6-75.459,1.144-105.806,1.365-33.5.239-78.572,1.048-126.292,1.913-70.534,1.286-143.489,2.529-188.6,2.265C98.1,355.364,48.871,353.576,5.432,352l-3.111-.113q-.3,1.445-.572,2.831,1.784.065,3.578.13c43.46,1.594,92.711,3.381,132.057,3.689" transform="translate(0.569 113.929)" fill="#a38c7b"/>
      <path id="Path_19" data-name="Path 19" d="M266.8,326.714c62.833.586,122.185,1.1,153.374.154,29.223-.883,79.322-1.469,127.149-1.838q-.413-1.455-.807-2.85c-47.609.368-97.346.956-126.425,1.838-31.132.921-90.457.419-153.269-.167-54.677-.49-111.206-.993-146.827-.42-31.6.5-73.557,1-111.443,1.411q-.332,1.434-.665,2.863c38.069-.416,80.349-.924,112.15-1.426,35.58-.543,92.1-.042,146.764.435" transform="translate(2.565 104.83)" fill="#a38c7b"/>
      <path id="Path_20" data-name="Path 20" d="M64.651,301.715c68.871-.586,278.315-3.686,346.3-4.761,31.4-.5,78.986-.783,123.593-.953q-.425-1.437-.852-2.846c-44.374.17-91.569.456-122.783.948-67.982,1.063-277.42,4.163-346.283,4.763-19.491.164-35.355.138-49.5.032-.261.925-.523,1.882-.787,2.851,7.137.057,14.7.091,22.938.091,8.346,0,17.391-.028,27.38-.126" transform="translate(4.663 95.386)" fill="#a38c7b"/>
      <path id="Path_21" data-name="Path 21" d="M291.9,335.8a1.316,1.316,0,0,1-.1-2.628c15.439-1.2,31.115-1.2,46.273-1.2a1.317,1.317,0,0,1,0,2.635c-15.108,0-30.737,0-46.078,1.184Z" transform="translate(94.554 108.017)" fill="#a38c7b"/>
      <path id="Path_22" data-name="Path 22" d="M284.591,345.756c-5.54,0-10.49-.22-15.14-.667a1.327,1.327,0,0,1-1.176-1.442,1.366,1.366,0,0,1,1.43-1.182c4.559.443,9.43.656,14.885.656,6.641,0,13.411-.319,19.956-.626,6.574-.306,13.374-.631,20.078-.631a1.317,1.317,0,0,1,0,2.635c-6.643,0-13.411.318-19.956.624C298.092,345.433,291.293,345.756,284.591,345.756Z" transform="translate(87.288 111.235)" fill="#a38c7b"/>
      <path id="Path_23" data-name="Path 23" d="M299.5,304.631a1.318,1.318,0,0,1-.009-2.636c.608-.007,61.639-.6,127.277-.6a1.318,1.318,0,0,1,0,2.636c-65.626,0-126.645.587-127.255.6Z" transform="translate(97.024 98.068)" fill="#a38c7b"/>
      <path id="Path_24" data-name="Path 24" d="M56.29,334.758c-6.825,0-13.722-.154-20.394-.3s-13.594-.3-20.449-.3a1.318,1.318,0,0,1,0-2.636c6.886,0,13.814.155,20.51.309,6.654.147,13.534.294,20.334.294a1.317,1.317,0,0,1,0,2.635Z" transform="translate(4.6 107.869)" fill="#a38c7b"/>
      <path id="Path_25" data-name="Path 25" d="M297.893,288.829c.7,2.261-.372,30.314-.49,39.865-.18,14.88-4.738,5.883-7.963,13.475-3.075,7.243-1.915,17.336-3.537,22.925-1.091,5.991-3.875,15.256-9.791,18.345-7.91,3.075-19.557.472-26.985,0-8.808-.562-16.119.865-31.924,1.683s-24.949-4.211-24.949-4.211,6.224-6.456,8.94-18.231c1.028-10.864,2.791-16.625,4.893-20.511,4.1-7.579,7.657-2.365,8.13-10.387.448-7.585.048-38.264,3.279-42.351s53.2-3.388,60.741-3.128C286.381,286.584,297.131,286.378,297.893,288.829Z" transform="translate(62.555 93.087)" fill="#a38c7b"/>
      <path id="Path_26" data-name="Path 26" d="M204.17,200.774c1.907.126,2.635,1.217,4.168,4.875,1.132,2.709,2.547,6.09,5.993,7.445,6.521,2.527,11.73-.656,15.914-3.213,3.2-1.955,5.965-3.673,9.087-3.267,3.635.46,4.938,2.345,6.75,4.944,1.948,2.806,4.62,6.661,10.641,6.983h.423c3.69,0,6.937-2.459,10.073-4.847,2.83-2.151,5.749-4.371,8.551-4.539,2.436-.223,4.017,1.188,6.529,3.59,3.329,3.185,8.345,8.044,17.419,3.659,3.911-1.873,5.847-5.125,7.409-7.752,1.865-3.129,2.975-4.8,5.938-5.377,2.107-.252,4.606,1.41,7.221,3.324,3.246,2.359,6.922,5.042,11.335,4.3,4.391-.725,6.257-5.194,8.068-9.511.506-1.207,1.1-2.618,1.742-3.845-1.563-2.168-3.116-4.179-4.638-6.007a33.369,33.369,0,0,0-3.653,7.072c-.749,1.8-2.011,4.819-2.669,5.223-1.605.463-3.8-1.425-6.024-3.029-3.384-2.459-7.573-5.616-12.713-4.541-6.229,1.2-8.706,5.362-10.7,8.716-1.333,2.248-2.394,4.021-4.363,4.971-4.648,2.22-6.25.684-9.47-2.39-2.754-2.624-6.049-5.809-11.869-5.557-4.933.306-8.893,3.323-12.39,5.992-2.151,1.62-4.82,3.421-5.848,3.393-2.448-.126-3.357-1.3-5.189-3.923-2.074-3-4.925-7.1-11.7-7.948-5.556-.74-9.87,1.927-13.658,4.26-4.072,2.472-6.535,3.854-9.641,2.64-.647-.252-1.443-2.151-2.02-3.547-1.465-3.507-3.677-8.786-10.253-9.218a14.37,14.37,0,0,0-4.767.449c-2.607,3.418-5.185,7.2-7.722,11.249l1.225.591c.777-1.563,6.6-5.014,10.8-5.168" transform="translate(62.519 62.322)" fill="#0072b3"/>
      <path id="Path_27" data-name="Path 27" d="M193.228,239.9c2.948.543,5.666-1.453,8.484-3.632,1.956-1.508,4.607-3.394,6.216-3.491,1.907.126,2.635,1.215,4.168,4.873,1.132,2.71,2.546,6.09,5.993,7.445,6.534,2.542,11.739-.643,15.914-3.211,3.2-1.971,5.966-3.646,9.087-3.268,3.636.46,4.938,2.346,6.75,4.942,1.948,2.808,4.62,6.664,10.641,6.983h.423c3.69,0,6.937-2.456,10.073-4.844,2.83-2.152,5.749-4.374,8.551-4.541,2.436-.195,4.017,1.188,6.529,3.59,3.329,3.185,8.345,8.044,17.419,3.658,3.911-1.87,5.848-5.125,7.409-7.751,1.865-3.129,2.975-4.806,5.938-5.377,2.107-.278,4.606,1.412,7.221,3.324,3.246,2.347,6.922,5.027,11.335,4.3,4.794-.8,6.86-5.223,8.518-8.783,1.7-3.631,2.893-5.879,5.148-6.5,2.441-.558,6.757,2.208,10.231,4.539,3.47,2.307,7.019,4.651,10.413,4.848-1.017-2.949-2.117-5.889-3.287-8.8-1.134-.665-2.306-1.414-3.206-2.015-4.905-3.267-10.461-7-16-5.475-5.6,1.511-7.886,6.412-9.732,10.35-1.047,2.264-2.137,4.582-3.238,4.763-1.6.447-3.8-1.412-6.024-3.031-3.384-2.457-7.573-5.572-12.713-4.538-6.229,1.2-8.706,5.362-10.7,8.714-1.333,2.248-2.394,4.023-4.363,4.973-4.648,2.219-6.25.683-9.47-2.388-2.754-2.627-6.049-5.854-11.869-5.56-4.933.306-8.893,3.325-12.39,5.992-2.151,1.62-4.82,3.437-5.848,3.394-2.448-.126-3.357-1.3-5.189-3.924-2.074-3-4.925-7.1-11.7-7.948-5.556-.782-9.87,1.928-13.658,4.261-4.072,2.471-6.535,3.84-9.641,2.639-.647-.251-1.443-2.151-2.02-3.547-1.465-3.506-3.677-8.786-10.253-9.218-4.188-.281-8.02,2.624-11.022,4.958a26.341,26.341,0,0,0-2.747,2.276c-2.1-.419-3.336-2.751-5.133-6.522-1.382-2.905-2.913-6.11-5.568-8.179q-1.686,3.334-3.325,6.73a28.04,28.04,0,0,1,2.484,4.535c1.97,4.147,4.425,9.288,10.148,10.447" transform="translate(58.762 70.992)" fill="#0072b3"/>
      <path id="Path_28" data-name="Path 28" d="M264.842,290.6h-4.549V268.468h4.549Z" transform="translate(84.693 87.353)" fill="#664e54"/>
      <path id="Path_29" data-name="Path 29" d="M161.84,230.271s-8.758.96-11.021,2.285-2.575,17.434-1.047,21.091,9.871,3.951,9.871,3.951l2.2-27.327" transform="translate(48.425 74.925)" fill="#664e54"/>
      <path id="Path_30" data-name="Path 30" d="M282.675,283.889c5.589,3.516,21.735,3.052,25.779.508s10.11-7.121,10.11-28.494-2.023-29.511-8.089-33.071-135.46-5.6-145.567,1.017-9.6,46.3-10.11,63.6-2.021,46.811,3.537,51.9,41.952,6.107,70.763,5.6,79.356-.509,83.9-3.563,1.516-32.564-2.021-34.6-31.844-1.528-51.051-.51-42.457,2.545-45.995-.509-2.527-37.142,1.01-39.687,53.073-3.054,57.622-1.017,6.065,16.282,10.107,18.826" transform="translate(50.18 71.424)" fill="#ffeed7"/>
      <path id="Path_31" data-name="Path 31" d="M292.13,320.619c.314-12.141.867-30,.314-31.789-.761-2.452-11.512-2.247-19.655-2.526-7.536-.261-57.508-.957-60.741,3.128-2.477,3.133-2.822,21.886-3.048,33.889.762-.012,1.522-.023,2.274-.036,25.665-.452,68.575-.5,80.856-2.665" transform="translate(68.004 93.087)" fill="#dbc3ab"/>
      <path id="Path_32" data-name="Path 32" d="M269.384,221.466c6.065,3.563,8.086,12.584,8.086,33.953s-6.065,25.95-10.107,28.493c-1.547.973-4.865,1.639-8.684,1.9,6.334.431,13.317-.345,15.787-1.9,4.042-2.543,10.109-7.123,10.109-28.493s-2.021-29.511-8.086-33.072c-.822-.482-3.907-.936-8.645-1.345A5.636,5.636,0,0,1,269.384,221.466Z" transform="translate(84.168 71.909)" fill="#dbc3ab"/>
      <path id="Path_33" data-name="Path 33" d="M212.925,296.66c-5.523-.131-9.551-.633-10.863-1.765-3.539-3.052-2.527-37.144,1.01-39.688,1.9-1.368,17.1-2.144,31.452-2.258-15.969-.134-36.333.661-38.555,2.258-3.539,2.545-4.549,36.636-1.01,39.688C196.786,296.47,203.865,296.824,212.925,296.66Z" transform="translate(62.719 82.298)" fill="#dbc3ab"/>
      <path id="Path_34" data-name="Path 34" d="M294.229,285.457c.683,2.261-.362,30.314-.476,39.865-.178,14.879-4.62,5.883-7.764,13.475-3,7.243-1.866,17.336-3.449,22.925-1.063,5.991-3.779,15.256-9.544,18.344-7.71,3.075-19.066.472-26.3,0-8.587-.562-15.714.866-31.121,1.683s-24.321-4.209-24.321-4.209,6.068-6.457,8.713-18.232c1-10.864,2.722-16.627,4.771-20.512,4-7.58,7.465-2.366,7.924-10.387.436-7.584.048-38.265,3.2-42.351s51.865-3.388,59.211-3.128c7.94.28,18.42.076,19.161,2.526" transform="translate(62.228 91.99)" fill="#b98ded"/>
      <path id="Path_35" data-name="Path 35" d="M279.343,305.6c.106-4.123.207-8.352.268-12.081l-28.329.439-14.427,7.821c-.888,2.681,2.22,3.353,9.321-1.34,0,0-5.771,5.14-6.213,8.268s4.883,3.129,14.207-4.469c0,0-6.7,5.9-5.551,7.821,2,3.352,9.767-2.905,12.209-3.8S272.325,307.365,279.343,305.6Z" transform="translate(77.019 95.504)" fill="#9b5de5"/>
      <path id="Path_36" data-name="Path 36" d="M208.5,315.059l-.469.561c-.032,1.256-.068,2.317-.115,3.116-.2,3.462-.956,4.457-2.077,5.082,6.961.391,20.92,1.075,33.293,1.075,15.351,0,31.744-.349,46.1.508,2-.486,3.675-.736,3.781-9.752.013-.911.032-1.989.056-3.2-18.618,2.231-62.8,2.99-80.564,2.608" transform="translate(66.974 101.664)" fill="#9b5de5"/>
      <path id="Path_37" data-name="Path 37" d="M283.288,339.389c-9.021.964-26.134,3.951-42.963,2.869-16.455-1.056-33.458-3.781-39.914-4.887-.162,1.3-.31,2.677-.448,4.154-2.646,11.775-8.713,18.229-8.713,18.229s8.913,5.03,24.321,4.212,22.534-2.246,31.121-1.685c7.239.473,18.6,3.076,26.3,0,5.765-3.087,8.481-12.352,9.544-18.343A26.1,26.1,0,0,0,283.288,339.389Z" transform="translate(62.228 109.773)" fill="#9b5de5"/>
      <path id="Path_38" data-name="Path 38" d="M274.778,142.083s-30.205,10.453-36.048,21.376c7.462,9.112,2.178,18.166-8.488,21.236,0,0,4.1,16.773,26.461,16.392,25.708-.44,29.939-16.982,29.939-16.982s-13.185-5.21-15.6-16.1c-2.6-11.731-.615-17.861,3.738-25.922" transform="translate(74.915 46.23)" fill="#ffe9e9"/>
      <path id="Path_39" data-name="Path 39" d="M287.182,142.65c-4.424-.41-4.561,1.5-4.561,1.5-6.651-5.6-3.148-14.462-3.148-14.462s-30.737-9.628-42.555-37.222c-16.065,2.054-20.227,25.23-20.227,25.23-7.7,49.822,16.7,70.984,25.079,72.1,5.565.95,27.783-6.28,38.617-27.93,5.49,0,9.4-7.482,9.4-7.482C292.239,148.331,290.76,142.982,287.182,142.65Z" transform="translate(70.024 30.086)" fill="#ffe9e9"/>
      <path id="Path_40" data-name="Path 40" d="M239.232,114.822c-.391,2.993,4.761-1.315,13.4,1.423,5.215,1.654,8.92,7.162,9.739,6.484s-1.036-5.926-8.623-9.349C247.62,110.616,239.518,112.624,239.232,114.822Z" transform="translate(77.834 36.453)" fill="#664e54"/>
      <path id="Path_41" data-name="Path 41" d="M230.71,114.864c.6,2.722-5.27,1.278-10.439,3.673-3.7,1.718-4.57,4.759-5.415,4.38s-1.339-4.156,3.781-7.39C222.856,112.864,230.34,113.167,230.71,114.864Z" transform="translate(69.735 36.949)" fill="#664e54"/>
      <path id="Path_42" data-name="Path 42" d="M233.385,130.868c1.543-4.95.045-9.136-4.087-13.145,5.093,3.1,8.068,8.8,6.743,13.73-1.341,5.376-5.641,13.437-5.718,14.975-.1,2.016,2.062,5.389,5.437,6.618-6.011-.611-9.066-4.492-8.72-7.392.225-1.886,4.673-9,6.345-14.786" transform="translate(73.865 38.304)" fill="#bb8c92"/>
      <path id="Path_43" data-name="Path 43" d="M289.585,282.3s-8.8,4.777-14.435,6.33c-7.4,1.984-18.405,3.856-23.616,5.429-6.5,1.963-15.528,8.211-14.714,10.461,1.156,3.191,8.464-3.907,15.748-4.761-5.461,2.95-13.6,9.066-12.579,11.736,1.431,3.753,12.588-6.95,17.98-7.19-3.048,1.551-10.948,8.9-9.867,10.513,1.646,2.465,9.682-5.384,11.768-6.079s15.889-3.446,21.044-6.208a145.357,145.357,0,0,0,19.817-4.99Z" transform="translate(77.039 91.855)" fill="#ffe9e9"/>
      <path id="Path_44" data-name="Path 44" d="M257.067,308.744c2.086-.693,15.889-3.447,21.044-6.208a145.408,145.408,0,0,0,19.818-4.99L286.782,282.3s-8.009,4.347-13.637,6.1a7.576,7.576,0,0,1,2.4,4.292c1.552,7.822-17.315,14.078-20.2,14.971-2.8.867-8.918,8.018-9.959,7.26,1.813,2.118,9.629-5.494,11.683-6.179" transform="translate(79.842 91.855)" fill="#f29193"/>
      <path id="Path_45" data-name="Path 45" d="M268.313,316.607l11.373,20.227s66.352-8.061,68.627-48.257c2.028-35.817-27.673-91.207-45.491-103.8l-15.669,61.565S306.74,274.2,306.361,282.98,268.313,316.607,268.313,316.607Z" transform="translate(87.302 60.123)" fill="#009ddc"/>
      <path id="Path_46" data-name="Path 46" d="M251.245,146.589a78.556,78.556,0,0,1-12.131,3.62,45.743,45.743,0,0,1-11.62.757s5.537,8.574,13.727,6.944C249.164,156.328,251.245,146.589,251.245,146.589Z" transform="translate(74.021 47.697)" fill="#bb8c92"/>
      <path id="Path_47" data-name="Path 47" d="M239.66,153.306a18.347,18.347,0,0,1-12.122-2.29l-.044-.05a41.921,41.921,0,0,0,11.62-.757,87.464,87.464,0,0,0,12.134-3.62A18.908,18.908,0,0,1,239.66,153.306Z" transform="translate(74.021 47.697)" fill="#ab6f77"/>
      <path id="Path_48" data-name="Path 48" d="M240.93,128.3s4.873,5.059,10.7,2.695c5.563-2.258,6.171-6.115,8.968-6.732,0,0-1.31-2.191-7.26,1.214-7.12,4.074-12.4,2.823-12.4,2.823" transform="translate(78.393 40.205)" fill="#664e54"/>
      <path id="Path_49" data-name="Path 49" d="M231.409,130a11.159,11.159,0,0,1-8.934,3.188c-4.835-.652-4.873-5.145-6.444-4.417,0,0,.675-1.564,2.728-.754a21.506,21.506,0,0,0,4.257,1.365,49.584,49.584,0,0,0,8.394.619" transform="translate(70.291 41.578)" fill="#664e54"/>
      <path id="Path_50" data-name="Path 50" d="M146.15,228.466a15.984,15.984,0,0,1,6.635,1.582c2.818,1.231,10.69,5.275,9.419,7.47-1.046,1.805-5.284.028-10.134-1.437-2.854-.861-8.562-1.58-8.99-.288-.318.961,4.647.492,9.133,1.869,4.852,1.488,10.029,3.89,9.419,5.458-1.286,3.306-6.343.937-11.275.144-4.484-.72-8.522-.721-8.705.288-.131.729,3.6.61,7.136,1.294,4.139.8,8.176,2.459,7.891,4.327-.274,1.8-4.314.671-8.606.557-3.258-.086-6.4.742-8.655-1.028-5.935-4.664-2.619-19.947,6.73-20.236" transform="translate(44.397 74.336)" fill="#ffe9e9"/>
      <path id="Path_51" data-name="Path 51" d="M301.137,184.778c18.761,18.117,44.49,86.312,38.956,104.787-8.433,28.156-56.5,36.134-66.6,39.244L278,336.832s66.352-8.06,68.629-48.256C348.656,252.76,318.957,197.37,301.137,184.778Z" transform="translate(88.987 60.122)" fill="#0072b3"/>
      <path id="Path_52" data-name="Path 52" d="M300.032,210.9c4.391-.726,6.257-5.194,8.068-9.511.506-1.207,1.1-2.619,1.742-3.845-3.959-5.495-2.46-3.085-4.638-6.007a33.363,33.363,0,0,0-3.653,7.072c-.749,1.8-2.011,4.819-2.669,5.223-1.824.525-5.663-2.786-7.274-3.934-2.579,2.06-2.8,4.627-1.891,7.435,2.994,2.139,6.359,4.229,10.315,3.565" transform="translate(94.109 62.322)" fill="#0072b3"/>
      <path id="Path_53" data-name="Path 53" d="M290.982,238.061c3.247,2.347,6.924,5.027,11.336,4.3,4.794-.8,6.86-5.223,8.518-8.783,1.7-3.631,2.893-5.879,5.148-6.5,2.441-.558,6.755,2.208,10.231,4.539,3.47,2.307,7.019,4.651,10.413,4.848-1.017-2.949-2.117-5.889-3.287-8.8-1.135-.665-2.306-1.414-3.206-2.015-4.905-3.267-10.461-7-16-5.475-5.6,1.511-7.886,6.412-9.732,10.35-1.047,2.264-2.137,4.582-3.239,4.763-1.6.447-3.8-1.412-6.022-3.031-2.913-2.117-6.424-4.712-10.624-4.736-2.372,1.9-2.759,4.449-1.886,7.408l.058.084a7.706,7.706,0,0,1,1.07-.284c2.109-.278,4.607,1.412,7.221,3.324" transform="translate(91.823 71.528)" fill="#0072b3"/>
      <path id="Path_54" data-name="Path 54" d="M295.558,119.649c-18.191-.518-32-5.909-45.108-18.584a.868.868,0,0,0-1.356,1.051c8.407,14.526,30.887,21.73,46.635,18.823.746-.138.538-1.268-.171-1.29" transform="translate(81.009 32.805)" fill="#59444a"/>
      <path id="Path_55" data-name="Path 55" d="M245.324,84.053c1.724,10.469,15.474,23.781,26.388,23.19a.781.781,0,0,0,.205-1.525c-11.862-3.346-19.344-11.808-25.319-22.205-.42-.73-1.4-.21-1.275.541" transform="translate(79.819 27.059)" fill="#59444a"/>
      <path id="Path_56" data-name="Path 56" d="M302.229,161.305c1.14,7.274-.669,16.252-7.027,20.459-1.264.836-.494,3.191,1.09,2.6,8.272-3.074,9.142-16.223,7.088-23.378a.6.6,0,0,0-1.15.318" transform="translate(95.846 52.241)" fill="#59444a"/>
      <path id="Path_57" data-name="Path 57" d="M282.575,129.584c-.509,18.891,21.789,28.637,15.76,48.494a.969.969,0,0,0,1.763.749c8.754-17.093-14.33-33.434-16.62-49.365C283.4,128.931,282.587,129.083,282.575,129.584Z" transform="translate(91.94 42.016)" fill="#59444a"/>
      <path id="Path_58" data-name="Path 58" d="M167.5,327.995c2.416-1.726,4.079-14,.406-14.987-.478-.127-1.61-.394-1.61-.394,4.138-1.573,5.284-7.667,4.6-10.224-.406-1.5-1.691-2.391-3.844-2.79,4.636-.553,5.91-3.058,5.441-5.227l.011-.044c0-2.95-3.215-7.474-7.351-12.781a31.316,31.316,0,0,1-2.3-3.446c-42.1-.19-94.622-2.033-123.294-.933a33.376,33.376,0,0,1-2.378,4.967c-3.217,5.309-4.365,19.27-.689,19.859,0,0,.932,14.771,1.6,14.891l-.222.053c-4.868,1.251-6.6,8.179.074,10.091,7.218,2.068,23.9,1.233,52.081,2.1,38.37,1.18,72.476,2.439,77.483-1.136" transform="translate(10.915 90.071)" fill="#a38c7b"/>
      <path id="Path_59" data-name="Path 59" d="M156.983,303.04c3.91-1.575,5-7.67,4.345-10.227s-3.694-3.341-9.127-2.948-18.685,1.769-55.624,2.554-57.8-.785-62.36,0-5.432,12.978,0,14.551,39.763,4.522,71.7,3.932S156.983,303.04,156.983,303.04Z" transform="translate(9.912 94.284)" fill="#009ddc"/>
      <path id="Path_60" data-name="Path 60" d="M35.352,314.13c6.824,2.069,22.605,1.234,49.252,2.1,36.285,1.178,68.54,2.437,73.277-1.139,2.284-1.724,3.858-14,.382-14.986s-28.03,4.325-57.58,5.308c-22.92.763-56.71-3.736-65.4-1.376-4.6,1.25-6.239,8.178.07,10.09" transform="translate(10.153 97.608)" fill="#dedace"/>
      <path id="Path_61" data-name="Path 61" d="M29.526,290.563a78.02,78.02,0,0,1,5.649-11.011c3.043-5.309,1.955-7.865,7.171-9.832s29.333.394,51.278.195,49.107-1.964,53.667-1.571,5,5.308,8.911,10.618,6.953,9.83,6.953,12.781-44.761,4.13-62.144,4.522-71.485-5.7-71.485-5.7" transform="translate(9.607 87.294)" fill="#9b5de5"/>
      <path id="Path_62" data-name="Path 62" d="M34.6,294.6c-3.476-.59-5.867-5.308-5.215-8.061s6.3-4.13,18.469-3.146c9.611.777,24.336,2.95,48.237,3.934s56.927-6.293,64.532-3.54c3.286,1.189,4.782,7.669-2.824,8.456s-39.327,4.521-65.4,4.521S34.6,294.6,34.6,294.6" transform="translate(9.527 92.105)" fill="#b98ded"/>
      <path id="Path_63" data-name="Path 63" d="M77.413,268.041c-1.321.639-11.29-2.932-14.034-4.363s-5.808-4.529-2.376-6.8,10.23.486,13.271,3.41c3.859,3.708,4.46,7.113,3.139,7.753Zm5.14,4.877.9-2.611s.188-4.716-5.63-10.892c-4.547-4.828-14.919-8.9-20.464-5.226s-1.036,9.7,3.774,11.484C66.253,267.567,66.26,267.557,82.553,272.918Z" transform="translate(17.832 82.246)" fill="#664e54"/>
      <path id="Path_64" data-name="Path 64" d="M74.823,268.175l2.088-2.624s19.319,3.361,28.437,8.4c12.913,7.132,16.686,12.578,16.686,12.578s-19.11-4.22-27.653-8.041-19.558-10.311-19.558-10.311" transform="translate(24.346 86.404)" fill="#ccbaa8"/>
      <path id="Path_65" data-name="Path 65" d="M75.4,267.531l47.212,18.353a60.121,60.121,0,0,1-24.775-2.9,134.633,134.633,0,0,1-24.777-12.329l2.34-3.124" transform="translate(23.771 87.048)" fill="#ffeed7"/>
      <path id="Path_66" data-name="Path 66" d="M65.428,274.367c-4.916.412-12.3-1.649-12.536-5.581s4.869-4.469,8.147-3.89,13.666,3.975,13.979,5.3-3.355,3.642-9.59,4.168Zm-4.054-12.445c-5.062-1.592-13.969.362-13.592,6.72s11.511,9.606,19.295,8.628c9.962-1.253,14.207-4.618,14.207-4.618l2.34-3.124S66.435,263.513,61.375,261.921Z" transform="translate(15.544 85.051)" fill="#664e54"/>
      <path id="Path_67" data-name="Path 67" d="M46.258,343.818c.835-8.606,21.115-11.427,39.442-11.071s32.668,5,32.668,12.5S98.05,358.1,80.122,357.745,45.461,352.031,46.258,343.818Z" transform="translate(15.042 108.258)" fill="#a38c7b"/>
      <path id="Path_68" data-name="Path 68" d="M49.874,350.351c-3.386-4.195-4.428-17.3-.521-22.021,2.734-3.3,10.678-8.391,25-9.177,13.273-.729,30.732,3.146,46.356-3.409,0,0,1.563,4.72.783,12.845,0,0-10.679,5.245-28.648,3.409s-42.972,18.352-42.972,18.352" transform="translate(15.243 102.735)" fill="#c1bbb1"/>
      <path id="Path_69" data-name="Path 69" d="M96.978,318.108A92.265,92.265,0,0,1,97.508,331a36.972,36.972,0,0,0,7.675-2.412c.779-8.127-.781-12.847-.781-12.847A45.119,45.119,0,0,1,96.978,318.108Z" transform="translate(31.554 102.735)" fill="#664e54"/>
      <path id="Path_70" data-name="Path 70" d="M58.914,335.076a.623.623,0,0,0,.623-.627V319.582c-.424.113-.84.227-1.245.347v14.52A.623.623,0,0,0,58.914,335.076Z" transform="translate(18.967 103.984)" fill="#664e54"/>
      <path id="Path_71" data-name="Path 71" d="M69.147,318.265c.247,4.391.414,12.516.448,15.613.412-.153.824-.3,1.236-.439-.043-3.141-.175-10.745-.443-15.193q-.626,0-1.241.019" transform="translate(22.499 103.55)" fill="#664e54"/>
      <path id="Path_72" data-name="Path 72" d="M79.529,318.546c.035,3.116.109,8.55.216,12.424q.631,0,1.253.03c-.106-3.8-.205-9.278-.238-12.407-.412-.016-.822-.03-1.231-.048" transform="translate(25.877 103.647)" fill="#664e54"/>
      <path id="Path_73" data-name="Path 73" d="M49.866,332.783l.153-.012a.645.645,0,0,0,.464-.751c-.081-.419-.185-4.008-.27-7.958a14.053,14.053,0,0,0-1.221,1.176c.076,3.605.175,6.7.288,7.1A.6.6,0,0,0,49.866,332.783Z" transform="translate(15.941 105.442)" fill="#664e54"/>
      <path id="Path_74" data-name="Path 74" d="M89.921,318.546q-.626.04-1.25.07a95.2,95.2,0,0,1,.167,10.616q-.026,1.107-.045,2.213c.422-.012.841-.028,1.252-.048.014-.712.03-1.427.045-2.143a96.19,96.19,0,0,0-.169-10.709" transform="translate(28.851 103.647)" fill="#664e54"/>
      <path id="Path_75" data-name="Path 75" d="M102.255,331.886l-53.129-2.1-.781,13.634c0,5.243,13.282,9.437,24.74,9.961s29.691-4.718,29.169-7.865A44.686,44.686,0,0,0,102.255,331.886Z" transform="translate(15.73 107.305)" fill="#c1bbb1"/>
      <path id="Path_76" data-name="Path 76" d="M48.934,331.565c0-5.474,20.834-8.388,34.9-6.815s17.711,5.767,18.231,8.913-17.709,8.39-29.169,7.865-23.959-4.718-23.959-9.963" transform="translate(15.922 105.528)" fill="#dedace"/>
      <path id="Path_77" data-name="Path 77" d="M54.391,332.682a.622.622,0,0,0-.623.627v15.58c.4.163.82.317,1.245.471v-16.05A.622.622,0,0,0,54.391,332.682Z" transform="translate(17.495 108.247)" fill="#664e54"/>
      <path id="Path_78" data-name="Path 78" d="M64.783,334.115a.626.626,0,0,0-.36.811c.372,1,.626,11.661.709,16.877.416.038.831.072,1.243.1-.076-5.036-.3-16.188-.793-17.446A.584.584,0,0,0,64.783,334.115Z" transform="translate(20.948 108.693)" fill="#664e54"/>
      <path id="Path_79" data-name="Path 79" d="M76.236,335.125a.626.626,0,0,0-.586-.664h-.036a.624.624,0,0,0-.622.59c-.009.113.1,10.526.276,16.037.414-.065.829-.134,1.243-.209-.162-5.218-.32-15-.275-15.753" transform="translate(24.4 108.826)" fill="#664e54"/>
      <path id="Path_80" data-name="Path 80" d="M85.073,332.4a.626.626,0,0,0-1.232.22,71,71,0,0,1,.586,13.776q-.031,1.292-.05,2.577c.435-.156.855-.31,1.257-.468.014-.692.028-1.389.045-2.083a72.189,72.189,0,0,0-.6-14.021" transform="translate(27.276 107.987)" fill="#664e54"/>
      <path id="Path_81" data-name="Path 81" d="M48.934,331.565c0-5.474,20.834-8.388,34.9-6.815s17.711,5.767,18.231,8.913-17.709,8.39-29.169,7.865-23.959-4.718-23.959-9.963" transform="translate(15.922 105.528)" fill="#dedace"/>
      <path id="Path_82" data-name="Path 82" d="M65.776,336.749H65.7c-.926-.1-9.089-1.084-11.184-3.983a2.54,2.54,0,0,1-.469-2.048c.621-3.022,9.175-4.02,10.879-4.192H65a.656.656,0,0,1,.652.59.664.664,0,0,1-.584.722c-3.745.367-9.424,1.63-9.735,3.149a1.193,1.193,0,0,0,.249,1c1.486,2.06,7.915,3.194,10.27,3.451a.664.664,0,0,1,.579.729.654.654,0,0,1-.651.582" transform="translate(17.569 106.244)" fill="#c1bbb1"/>
      <path id="Path_83" data-name="Path 83" d="M75.265,335.175a.658.658,0,0,1-.08-1.311c2.941-.35,7.951-1.369,8.895-2.586l.1-.228c-.141-1.116-4.876-2.361-9.211-2.819a.663.663,0,0,1-.584-.722.676.676,0,0,1,.718-.59c2.35.252,10.038,1.28,10.367,3.964a1.588,1.588,0,0,1-.358,1.2c-1.584,2.046-8.931,2.983-9.765,3.09h-.078" transform="translate(24.201 106.371)" fill="#c1bbb1"/>
      <path id="Path_84" data-name="Path 84" d="M69.113,332.85c-1.053,0-5.4-.08-6.539-1.348a1.309,1.309,0,0,1-.341-1.018c.225-2.017,4.767-2.237,6.745-2.237a.641.641,0,0,1,.674.656.654.654,0,0,1-.65.656h-.012c-2.88,0-5.407.588-5.456,1.072.244.458,2.886.907,5.565.907h.085a.656.656,0,0,1,0,1.312h-.073" transform="translate(20.247 106.803)" fill="#c1bbb1"/>
      <path id="Path_85" data-name="Path 85" d="M69.719,336.432c-1.01,0-2.075-.024-3.2-.078a.656.656,0,0,1-.621-.688.648.648,0,0,1,.681-.626c9.466.478,14.862-1.353,14.916-1.366a.645.645,0,0,1,.827.4.652.652,0,0,1-.4.835C81.72,334.988,77.434,336.432,69.719,336.432Z" transform="translate(21.441 108.557)" fill="#c1bbb1"/>
      <path id="Path_86" data-name="Path 86" d="M78.08,327.205l-.146-.011a27.193,27.193,0,0,0-7.817-.675.684.684,0,0,1-.688-.618.651.651,0,0,1,.615-.693,27.8,27.8,0,0,1,8.182.7.664.664,0,0,1,.494.79.656.656,0,0,1-.64.508" transform="translate(22.59 105.796)" fill="#c1bbb1"/>
      <path id="Path_87" data-name="Path 87" d="M323.992,342.8c.5-4.681,12.722-6.217,23.764-6.023s19.682,2.72,19.682,6.8-12.24,7-23.042,6.8-20.883-3.107-20.4-7.578" transform="translate(105.414 109.573)" fill="#a38c7b"/>
      <path id="Path_88" data-name="Path 88" d="M324.524,336.878c.655-1.137,31.91-1.37,31.91-1.37.718,1.192,1.071,5.92-.224,7.321-1.965,2.676-9.018,3.03-16.02,3.32-7.174.293-13.077-1.022-14.956-2.8C324.251,342.856,323.419,338.792,324.524,336.878Z" transform="translate(105.421 109.166)" fill="#f0ddc1"/>
      <path id="Path_89" data-name="Path 89" d="M356.331,336.214c1.31,5.095-7.606,5.561-16.435,5.923s-15.736-1.714-15.578-4.082,6.661-3.947,14.724-4.541,16.69.362,17.289,2.7" transform="translate(105.524 108.461)" fill="#ffeed7"/>
      <path id="Path_90" data-name="Path 90" d="M345.737,323.495H330.7a58.427,58.427,0,0,0,.172,16.779c.437,2,4.212,2.22,7.926,2.22,3.944,0,7.03-1.337,7.275-2.563a66.753,66.753,0,0,0-.334-16.436" transform="translate(107.427 105.257)" fill="#dedace"/>
      <path id="Path_91" data-name="Path 91" d="M343.606,323.495h-5.621a86.842,86.842,0,0,1,.183,17.414,2.691,2.691,0,0,1-1.449,1.585c3.918-.012,6.975-1.344,7.219-2.563a66.816,66.816,0,0,0-.333-16.436" transform="translate(109.56 105.257)" fill="#c1bbb1"/>
      <path id="Path_92" data-name="Path 92" d="M357.079,317.773c-.721-1.108-32.948-.056-32.948-.056-.69,1.219-.857,5.958.535,7.305,2.139,2.593,9.423,2.657,16.652,2.657,7.406,0,13.438-1.557,15.3-3.406C357.612,323.736,358.3,319.642,357.079,317.773Z" transform="translate(105.295 103.231)" fill="#f0ddc1"/>
      <path id="Path_93" data-name="Path 93" d="M324.026,318.452c-1.136,5.146,8.074,5.243,17.189,5.243s16.147-2.358,15.886-4.718-7.031-3.67-15.364-3.932S324.547,316.092,324.026,318.452Z" transform="translate(105.399 102.497)" fill="#ffeed7"/>
      <path id="Path_94" data-name="Path 94" d="M332.34,318.177c-.374,1.793,2.669,1.826,5.685,1.826s5.339-.823,5.252-1.643-2.325-1.279-5.081-1.369-5.682.363-5.856,1.186" transform="translate(108.125 103.137)" fill="#b7a391"/>
      <path id="Path_95" data-name="Path 95" d="M338.282,304.476c.569-5.3,14.391-7.032,26.88-6.814s22.265,3.078,22.265,7.694-13.846,7.913-26.066,7.693S337.74,309.533,338.282,304.476Z" transform="translate(110.063 96.846)" fill="#a38c7b"/>
      <path id="Path_96" data-name="Path 96" d="M372.529,271.322l-31.6.311c-.962,1.263-1.574,14.7-1.487,23.484.076,7.769.5,12.656,1.2,15.918.514,4.277,8.571,5.288,16.655,5.541,8.384.262,14.812-2.17,15.532-4.848l.041-.049c.875-1.661,1.4-8.021,1.488-16.8s-.868-22.252-1.83-23.555" transform="translate(110.444 88.282)" fill="#b98ded"/>
      <path id="Path_97" data-name="Path 97" d="M367.584,271.322l-10.584.1A211.953,211.953,0,0,1,358.166,295c-.086,9.939-.611,17.136-1.487,19.012l-.041.057a4.605,4.605,0,0,1-2,2.516c7.247-.2,12.6-2.425,13.25-4.854l.041-.05c.875-1.659,1.4-8.02,1.488-16.8s-.868-22.252-1.83-23.555" transform="translate(115.39 88.282)" fill="#9b5de5"/>
      <path id="Path_98" data-name="Path 98" d="M372.532,274.406c1.052-5.6-7.912-5.792-16.785-5.874s-15.69,2.426-15.414,5,6.884,4.066,15,4.429,16.718-.987,17.2-3.556" transform="translate(110.733 87.373)" fill="#dedace"/>
      <path id="Path_99" data-name="Path 99" d="M347.082,271.977c-.471,2.244,3.537,2.244,7.507,2.2s7.015-1.1,6.892-2.129-3.079-1.564-6.706-1.639S347.3,270.946,347.082,271.977Z" transform="translate(112.92 87.983)" fill="#664e54"/>
      <path id="Path_100" data-name="Path 100" d="M358.715,332.8c.569-5.3,14.391-7.034,26.88-6.815s22.265,3.078,22.265,7.694-13.848,7.914-26.066,7.694-23.621-3.518-23.079-8.573" transform="translate(116.711 106.063)" fill="#a38c7b"/>
      <path id="Path_101" data-name="Path 101" d="M392.719,295.093l-31.6.311c-.963,1.263-1.575,15.956-1.488,24.742.077,7.771.5,17.24,1.2,20.5.514,4.276,8.571,5.29,16.657,5.541,8.384.262,14.81-2.17,15.529-4.848l.042-.049c.873-1.661,1.4-12.6,1.487-21.386s-.867-23.508-1.83-24.814" transform="translate(117.014 96.016)" fill="#009ddc"/>
      <path id="Path_102" data-name="Path 102" d="M387.452,295.093l-9.952.1c.671,5.8,1.194,17.111,1.128,24.612-.089,9.988-.614,22.435-1.488,24.321l-.041.056a3.968,3.968,0,0,1-1.283,1.956c6.574-.412,11.327-2.514,11.938-4.794l.04-.049c.876-1.661,1.4-12.6,1.49-21.386s-.867-23.511-1.83-24.814" transform="translate(122.281 96.016)" fill="#0072b2"/>
      <path id="Path_103" data-name="Path 103" d="M392.722,298.178c1.051-5.6-7.913-5.792-16.785-5.875s-15.691,2.425-15.413,5,6.881,4.066,15,4.429S392.239,300.745,392.722,298.178Z" transform="translate(117.303 95.107)" fill="#dedace"/>
      <path id="Path_104" data-name="Path 104" d="M367.273,295.748c-.472,2.245,3.539,2.245,7.506,2.2s7.015-1.1,6.892-2.13-3.076-1.564-6.706-1.639S367.489,294.72,367.273,295.748Z" transform="translate(119.489 95.718)" fill="#664e54"/>
    </g>
  </g>
</svg>
